<svg xmlns="http://www.w3.org/2000/svg" width="800" height="450" viewBox="0 0 800 450">
  <rect width="800" height="450" fill="#0a0a0f"/>
  <rect x="40" y="40" width="720" height="370" rx="16" fill="#23232c"/>
  <circle cx="120" cy="100" r="24" fill="#f5c86d" opacity="0.5"/>
  <rect x="160" y="88" width="120" height="10" rx="5" fill="#3a3a46"/>
  <rect x="160" y="106" width="80" height="8" rx="4" fill="#3a3a46"/>
  <rect x="60" y="140" width="680" height="1" fill="#3a3a46"/>
  <circle cx="120" cy="180" r="24" fill="#9789cb" opacity="0.5"/>
  <rect x="160" y="168" width="150" height="10" rx="5" fill="#3a3a46"/>
  <rect x="160" y="186" width="100" height="8" rx="4" fill="#3a3a46"/>
  <rect x="60" y="220" width="680" height="1" fill="#3a3a46"/>
  <circle cx="120" cy="260" r="24" fill="#f5c86d" opacity="0.3"/>
  <rect x="160" y="248" width="130" height="10" rx="5" fill="#3a3a46"/>
  <rect x="160" y="266" width="90" height="8" rx="4" fill="#3a3a46"/>
  <rect x="60" y="300" width="680" height="1" fill="#3a3a46"/>
  <circle cx="120" cy="340" r="24" fill="#9789cb" opacity="0.3"/>
  <rect x="160" y="328" width="110" height="10" rx="5" fill="#3a3a46"/>
  <rect x="160" y="346" width="80" height="8" rx="4" fill="#3a3a46"/>
</svg>
